# xmcd
#
# Track frame offsets:
#	150
#	16097
#	33372
#	51022
#	65377
#	82300
#	97922
#	111132
#	131095
#	145467
#	161517
#	177590
#	192875
#	208047
#	226270
#	243857
#
# Disc length: 3487 seconds
#
# Revision: 5
# Processed by: cddbd v1.5.2PL0 Copyright (c) Steve Scherf et al.
# Submitted via: audiograbber 1.83.01
#
DISCID=d80d9d10
DTITLE=Various Artist - TJM - Prime Country Cuts
DYEAR=2000
DGENRE=Oldies
TTITLE0=Tracy Byrd - I'm From The Country
TTITLE1=Alan Jackson - Right On The Money
TTITLE2=Clint Black - Nothin' But The Taillights
TTITLE3=Brooks and Dunn - Husbands And Wives
TTITLE4=Dixie Chicks - Wide Open Spaces
TTITLE5=Martina Mcbride - Happy Girl
TTITLE6=Alabama - Keepin' Up
TTITLE7=Clay Walker - Then What?
TTITLE8=Vince Gill - Kindly Keep It Country
TTITLE9=Diamond Rio - You're Gone
TTITLE10=Aaron Tippin - For You I Will
TTITLE11=Lonestar - Say When
TTITLE12=Shedaisy - Little Good-Byes
TTITLE13=Mark Wills - Wish You Were Here
TTITLE14=Wilkinsons - 26 Cents
TTITLE15=Mark Chestnutt - I Don't Want To Miss A Thing
EXTD=
EXTT0=
EXTT1=
EXTT2=
EXTT3=
EXTT4=
EXTT5=
EXTT6=
EXTT7=
EXTT8=
EXTT9=
EXTT10=
EXTT11=
EXTT12=
EXTT13=
EXTT14=
EXTT15=
PLAYORDER=
